<svg version="1.1" id="Layer_1" xmlns="http://www.w3.org/2000/svg" x="0" y="0" viewBox="0 0 425.4 250.3" xml:space="preserve"><style>.st0{fill-rule:evenodd;clip-rule:evenodd}.st0,.st1{fill:#fff}</style><g id="Layer_2_1_"><g id="圖層_1"><path class="st0" d="M213.2 182.8h40.5v16.6h-11.4V250h-17l.1-50.6h-12.2zM263.4 182.7h34.3V197h-21.4v10.6h19.8v13.7h-19.8v13.3h22.1v15.2h-35zM368.2 182.7v67.1h16.3v-28.5H410v28.5h15.2v-67.1H410V208h-25.5v-25.3zM341.6 234.6c-23.2-.9-21.8-36.9 1.4-36 7.5.3 12.5 4.3 14.9 9.4v-20.2c-15.8-10-36.7-5.2-46.7 10.6s-5.2 36.7 10.6 46.7c5 3.2 10.8 5 16.8 5.2 6.8.2 13.4-1.4 19.2-4.9v-20.3c-2.6 5.7-8.1 9.8-16.2 9.5M152.4 74s48.8-34.7 108.1-60.6c2.4-1 4.8-2 7.2-3.1 9-3.2 18.1-6.8 27-8.2 1.8-.3 3.6-.6 5.5-.9 9-1.3 19.2-2 25-.2.7.2 1.4.5 2 .8 3.2 1.6 3.2 4.4 2.9 7-.2.9-.4 1.7-.8 2.5-2.4 5.8-10.7 17.2-36.9 37.5l-22.4.5s33-25.6 19.8-29.7c0 0-14.8-5.9-70.1 20.3L152.4 74zM93.1 79.7h55.7v19H130v57.6h-18.3V98.7H93.1z"/><path class="st1" d="M93.1 79.7h55.7v19H130v57.6h-18.3V98.7H93.1zM238.1 79.7h21.6v76.6h-21.6zM403.5 79.7h21.6v76.6h-21.6z"/><path class="st1" d="M403.5 79.7h21.6v76.6h-21.6z"/><path class="st0" d="M295.4 112.4h5.4c4 0 7-.8 8.8-2.3 1.6-1.6 2.5-3.8 2.4-6.1.1-2.2-.7-4.4-2.1-6.1-1.5-1.7-4.2-2.5-8.2-2.5h-6.2v17zm-21.6-32.7h35.9c7.8 0 13.8 2.1 17.5 6.1 4.1 4.1 5.9 9.9 5.9 17.4 0 7.7-2.1 13.8-6.3 18.2s-10.8 6.5-19.4 6.5h-11.9v28.4h-21.6V79.7zM344.2 79.7h44.4v16.4h-27.8v12.2h25.7v15.6h-25.7v15.2h28.6v17.2h-45.2zM180.7 127.2l7.6-27.6 7.8 27.6h-15.4m19.6-47.5h-23.4l-26.4 76.6h22.2l3.4-12.6h21.7c10.4-5.9 17.1-10.4 20.3-12.5l-17.8-51.5zm26.4 76.6l-8.5-24.6-17.5 12.7 3.3 12 22.7-.1z"/><path class="st0" d="M79.6 157.6c4.4-3.6 8.4-5.9 11.2-5.9l-21.4-4.2s-5.4 4-13.1 10.1h23.3zm101.6-1.5h9.4l27.6-24.3s-12.5 8.8-37 24.3m-5.9 4.5c-.3 0-.5-.1-.9-.1-3.5 2.3-7.1 4.5-10.9 6.9h15.2c1.6-1.5 3.3-2.8 4.9-4.2l2.9-2.6h-11.2zm-19.4 11.3c-4.3 2.6-8.8 5.1-13.3 7.6h20.7c3.4-2.5 6.6-5 9.9-7.6h-17.3zM135.1 184c-.2 0-.4-.1-.6-.2-5 2.6-9.9 5.1-14.8 7.4h26c3.7-2.2 7.4-4.6 11.2-7.2h-21.8zM113 195.6c-.3 0-.5 0-.7-.2h-2.4c-5.1 2.2-10.2 4.1-15.5 5.8h34.3c3.2-1.7 6.4-3.6 9.7-5.6H113zm-35.3 10.1s-.2 0-.2-.1c-2.4.6-4.9 1-7.4 1.2 0 0-14 3.3-20.7-.3H6.8c-1.1 1.6-2.2 3.3-3.1 5h104.7c3.7-1.8 7.7-3.7 11.7-5.7l-42.4-.1zM1.6 215.9c-.7 1.6-1.2 3.2-1.5 4.8h86.2c3.4-1.2 7.6-2.9 12-4.9l-96.7.1zM0 225.2c.1.9.4 1.8.8 2.6 0 0 5.2 11.6 70.2-1.9 0 0 .8-.2 2.4-.8H0zm46-23.3c-.3-2 0-4.1.9-5.9H15c-1.7 1.9-3.4 3.9-4.9 5.9H46zm3.1-10.5c.1-.3.2-.5.4-.7 0 0 2.1-2.8 5.3-6.8H26.5c-2.5 2.4-5 5-7.4 7.5h30zm9.5-12c1.6-1.8 3.2-3.7 4.8-5.6h-25c-.3 0-.7-.1-1-.3-2.1 1.9-4.2 3.8-6.3 5.9h27.5zm9-10.1c2.3-2.4 4.7-5 7-7.2H51c-2.8 2.3-5.7 4.6-8.6 7.3l25.2-.1z"/></g></g></svg>
